<?xml version="1.0" standalone="no"?>
<!DOCTYPE svg PUBLIC "-//W3C//DTD SVG 20010904//EN"
 "http://www.w3.org/TR/2001/REC-SVG-20010904/DTD/svg10.dtd">
<svg version="1.0" xmlns="http://www.w3.org/2000/svg"
 width="140.000000pt" height="131.000000pt" viewBox="0 0 140.000000 131.000000"
 preserveAspectRatio="xMidYMid meet">
<metadata>
Created by potrace 1.10, written by Peter Selinger 2001-2011
</metadata>
<g transform="translate(0.000000,131.000000) scale(0.100000,-0.100000)"
fill="#000000" stroke="none">
<path d="M549 1134 c-79 -86 -149 -168 -156 -183 -28 -61 -6 -137 57 -196 l32
-30 -16 32 c-21 41 -20 71 2 105 22 35 225 257 233 255 10 -3 224 -239 236
-260 17 -31 16 -78 -3 -105 -8 -12 -12 -22 -9 -22 7 0 52 52 77 89 21 30 23
105 5 138 -15 26 -297 333 -306 333 -4 0 -72 -70 -152 -156z m234 29 c112
-117 181 -193 194 -217 13 -23 17 -86 6 -85 -5 0 -30 26 -57 57 -100 116 -208
222 -226 222 -26 0 -270 -255 -270 -283 0 -6 -5 -4 -11 6 -16 28 -3 75 34 120
53 64 238 257 247 257 4 0 41 -35 83 -77z"/>
<path d="M624 852 c-39 -42 -74 -87 -78 -100 -9 -29 7 -55 90 -143 l62 -66 76
83 c100 109 100 115 -1 222 l-78 82 -71 -78z m138 -34 c33 -35 58 -71 58 -83
0 -23 -104 -135 -125 -135 -21 0 -115 112 -115 138 0 15 21 45 57 83 31 32 58
59 61 59 3 0 32 -28 64 -62z"/>
<path d="M215 596 c-57 -26 -72 -55 -139 -271 -36 -115 -62 -212 -58 -216 4
-3 102 -27 219 -53 182 -41 217 -46 250 -37 48 13 75 41 102 104 28 64 26 75
-4 39 -40 -47 -62 -48 -253 -5 -138 30 -172 41 -169 53 93 316 121 370 190
370 50 1 11 18 -54 25 -36 4 -64 1 -84 -9z m32 -38 c-42 -107 -107 -316 -107
-346 0 -12 11 -29 24 -37 25 -17 303 -85 345 -85 23 0 23 -1 7 -19 -32 -35
-64 -33 -265 14 -107 24 -196 46 -198 49 -6 5 104 352 123 388 18 35 84 68 71
36z"/>
<path d="M1057 600 c-51 -9 -58 -20 -14 -20 61 0 84 -34 137 -205 26 -83 50
-157 54 -165 5 -12 -27 -22 -175 -54 -180 -40 -180 -40 -214 -22 -19 11 -37
27 -40 37 -4 11 -10 19 -16 19 -15 0 31 -103 59 -133 49 -52 78 -53 262 -11
91 20 190 42 220 49 38 8 54 16 53 26 -10 53 -134 423 -148 439 -40 44 -95 56
-178 40z m142 -57 c25 -23 40 -60 86 -206 30 -97 55 -183 55 -190 0 -16 -23
-23 -238 -73 l-163 -38 -34 19 c-38 20 -45 35 -17 35 45 0 338 73 355 88 14
12 17 25 13 47 -10 47 -87 287 -102 318 -13 24 -13 27 1 27 8 0 28 -12 44 -27z"/>
<path d="M407 518 c-9 -7 -32 -61 -50 -119 l-34 -106 96 -21 c161 -37 164 -35
205 101 15 48 29 93 32 100 3 10 -22 20 -93 35 -113 25 -133 27 -156 10z m113
-30 c8 -4 32 -10 53 -13 32 -5 37 -9 37 -34 0 -43 -28 -126 -49 -145 -18 -16
-27 -17 -93 -6 -40 7 -79 17 -86 23 -20 16 0 109 36 165 12 18 23 23 51 21 20
-2 43 -6 51 -11z"/>
<path d="M830 508 c-47 -11 -87 -22 -88 -24 -8 -6 59 -204 74 -218 8 -9 27
-16 41 -16 23 0 204 39 211 45 7 6 -60 201 -75 218 -20 22 -56 21 -163 -5z
m144 -24 c9 -8 23 -41 33 -72 16 -52 18 -66 14 -91 -1 -10 -118 -41 -154 -41
-29 0 -47 25 -70 99 -27 85 -27 86 57 106 71 18 102 18 120 -1z"/>
</g>
</svg>
